<svg xmlns="http://www.w3.org/2000/svg" viewBox="0 0 512 512">
  <defs>
    <linearGradient id="grad" x1="0%" y1="0%" x2="100%" y2="100%">
      <stop offset="0%" style="stop-color:#6366f1"/>
      <stop offset="100%" style="stop-color:#8b5cf6"/>
    </linearGradient>
  </defs>
  <rect width="512" height="512" rx="102" fill="url(#grad)"/>
  <!-- Feather pen icon -->
  <g transform="translate(96, 80) scale(0.625)">
    <path fill="white" d="M512 0C460.22 3.56 96.44 38.2 71.01 287.61c-3.09 26.66-4.84 53.44-5.99 80.24l178.87-178.69c6.25-6.25 16.38-6.25 22.63 0s6.25 16.38 0 22.63L87.16 390.96c-3.54 26.65-5.19 53.31-5.03 79.89 26.58.16 53.24-1.49 79.89-5.03l178.75-178.86c6.25-6.25 16.38-6.25 22.63 0s6.25 16.38 0 22.63L184.54 488.5c26.8-1.15 53.58-2.9 80.24-5.99C514.42 456.85 508.44 51.78 512 0z"/>
  </g>
</svg>
